<?xml version="1.0" encoding="utf-8"?>
<!-- Generator: Adobe Illustrator 25.0.0, SVG Export Plug-In . SVG Version: 6.00 Build 0)  -->
<svg version="1.1" id="Capa_1" xmlns="http://www.w3.org/2000/svg" xmlns:xlink="http://www.w3.org/1999/xlink" x="0px" y="0px"
	 viewBox="0 0 749.9 471.9" style="enable-background:new 0 0 749.9 471.9;" xml:space="preserve">
<style type="text/css">
	.st0{display:none;}
	.st1{display:inline;}
	.st2{fill:#E9A4B4;}
	.st3{fill:#5FBFB8;}
	.st4{fill:#FFFFFF;}
</style>
<g>
	<g>
		<path class="st4" d="M592.7,5.3v206.3c0,2.9-2.4,5.3-5.3,5.3h-41.7c-2.9,0-5.3-2.4-5.3-5.3V5.3c0-2.9-2.4-5.3-5.3-5.3h-20.7
			c-2.9,0-5.3,2.4-5.3,5.3v361.5c0,2.9,2.4,5.3,5.3,5.3h104c2.9,0,5.3-2.4,5.3-5.3V5.3c0-2.9-2.4-5.3-5.3-5.3h-20.7
			C595,0,592.7,2.4,592.7,5.3z"/>
	</g>
	<g>
		<path class="st4" d="M697.8,211.6V5.3c0-2.9-2.4-5.3-5.3-5.3h-51.9c-2.9,0-5.3,2.4-5.3,5.3v361.5c0,2.9,2.4,5.3,5.3,5.3h104
			c2.9,0,5.3-2.4,5.3-5.3V222.1c0-2.9-2.4-5.3-5.3-5.3H703C700.1,216.9,697.8,214.5,697.8,211.6z"/>
	</g>
	<g>
		<path class="st2" d="M311.6,117.3c-38,0-68.8,30.8-68.8,68.8c0,38,30.8,68.8,68.8,68.8c38,0,68.8-30.8,68.8-68.8
			C380.4,148.1,349.6,117.3,311.6,117.3z M311.6,203.9c-9.9,0-17.9-8-17.9-17.9s8-17.9,17.9-17.9s17.9,8,17.9,17.9
			S321.5,203.9,311.6,203.9z"/>
		<path class="st3" d="M311.6,0c-2.9,0-5.9,0.1-8.8,0.2v6.5l142,86.4c9.2,5.6,14.9,15.8,14.9,26.5v78.6c3.1,3.1,5.1,7.4,5.1,12.1
			v44.5c0,6.6-5.4,12-12,12h-25.4c-6.6,0-12-5.4-12-12v-44.5c0-4.8,2-9.2,5.2-12.3v-69.2c0-2.5-1.3-4.8-3.4-6c0,0,0,0,0,0l-141-85.4
			h-46.4c-6.6,0-12-5.4-12-12v-0.1c-55.1,32.3-92.2,92.1-92.2,160.6c0,102.7,83.3,186,186,186s186-83.3,186-186
			C497.6,83.3,414.3,0,311.6,0z M311.6,266.8c-44.5,0-80.8-36.2-80.8-80.8c0-44.5,36.2-80.8,80.8-80.8c44.5,0,80.8,36.2,80.8,80.8
			C392.4,230.6,356.2,266.8,311.6,266.8z"/>
		<g>
			<path class="st4" d="M452.9,210.3v44.5h-25.4v-44.5c0-2.8,2.3-5,5-5h0.2v-76.4c0-6.7-3.5-12.9-9.2-16.3L279.5,25.4h-49.7V0h61.1
				v13.4l147.8,89.9c5.7,3.5,9.2,9.6,9.2,16.3v85.7C450.6,205.3,452.9,207.5,452.9,210.3z"/>
		</g>
	</g>
	<g>
		<path class="st4" d="M31.2,102.8V67.4c0-3,2.4-5.4,5.3-5.4h72.7c2.9,0,5.3-2.4,5.3-5.4V5.4c0-3-2.4-5.4-5.3-5.4H5.3
			C2.4,0,0,2.4,0,5.4v144.1c0,3,2.4,5.4,5.3,5.4H78c2.9,0,5.3,2.4,5.3,5.4v51.2c0,3-2.4,5.4-5.3,5.4H5.3c-2.9,0-5.3,2.4-5.3,5.4
			v144.3c0,3,2.4,5.4,5.3,5.4h103.9c2.9,0,5.3-2.4,5.3-5.4v-253c0-3-2.4-5.4-5.3-5.4H36.5C33.6,108.2,31.2,105.8,31.2,102.8z"/>
	</g>
	<g>
		<path class="st4" d="M509.3,471.1v-67.2H541c7,0,12.1,1.5,15.1,4.4c3,3,4.6,8,4.6,15.1c0,3.7-0.2,6.7-0.6,8.8
			c-0.4,2.1-1.4,3.9-3.1,5.5c-1.7,1.6-4.3,2.7-7.9,3.4c7.2,0.5,10.7,4.8,10.7,12.8v17.2h-7.8v-15.5c0-4.3-1-7.3-3-9.1
			c-2-1.7-5.2-2.6-9.6-2.6h-22.8v27.2H509.3z M516.7,437.7h21.8c3.5,0,6.3-0.3,8.4-1c2.1-0.7,3.6-1.9,4.5-3.7c1-1.8,1.5-4.4,1.5-7.7
			c0-3.8-0.2-6.7-0.7-8.6c-0.5-2-1.6-3.5-3.2-4.5c-1.7-1-4.3-1.5-7.9-1.5h-24.3V437.7z"/>
		<path class="st4" d="M564,438.7v-4c0-5.6,0.2-10.2,0.5-13.7c0.3-3.5,1.2-6.6,2.5-9.3c1.3-2.7,3.5-4.8,6.5-6.4
			c3-1.5,7.1-2.3,12.4-2.3h3.2c5.2,0,9.4,0.2,12.6,0.7c3.2,0.5,6,1.4,8.2,2.9c2.2,1.5,3.9,3.7,5,6.8s1.7,7.1,1.7,12.3
			c0,10.5,0,18.5-0.1,24c-0.1,4.2-0.6,7.7-1.4,10.4c-0.8,2.7-2.1,5-3.8,6.7c-1.7,1.7-4,3-6.9,3.8c-2.9,0.8-6.4,1.2-10.7,1.2
			c-0.6,0-1.5,0-2.8-0.1c-1.2-0.1-2.2-0.1-3-0.1c-4.1,0-7.5-0.3-10.3-0.8c-2.8-0.5-5.1-1.5-7-2.8c-1.9-1.4-3.4-3.4-4.5-6
			c-1.1-2.6-1.7-6-1.9-10.2C564.1,448.8,564,444.4,564,438.7z M571.8,438.3v10.8c0.1,4.5,0.6,7.9,1.4,10.1c0.8,2.3,2.3,3.8,4.6,4.7
			c2.2,0.9,5.6,1.4,10,1.4c4.4,0,7.7-0.1,10.2-0.4c2.4-0.3,4.4-0.9,6-2c1.6-1.1,2.8-2.8,3.6-5.1c0.8-2.3,1.2-5.5,1.4-9.5
			c0.1-4.9,0.2-12.3,0.2-22.1c0-5.3-0.6-9.2-1.8-11.5c-1.2-2.3-3.1-3.7-5.5-4.3c-2.5-0.5-6.5-0.8-12.1-0.8H587
			c-4.2,0-7.3,0.4-9.3,1.1s-3.5,2.3-4.4,4.5c-0.9,2.3-1.4,5.9-1.4,10.8L571.8,438.3z"/>
		<path class="st4" d="M620.1,438.7v-4c0-5.6,0.2-10.2,0.5-13.7c0.3-3.5,1.2-6.6,2.5-9.3c1.3-2.7,3.5-4.8,6.5-6.4
			c3-1.5,7.1-2.3,12.4-2.3h3.2c5.2,0,9.4,0.2,12.6,0.7c3.2,0.5,6,1.4,8.2,2.9c2.2,1.5,3.9,3.7,5,6.8c1.1,3,1.7,7.1,1.7,12.3
			c0,10.5,0,18.5-0.1,24c-0.1,4.2-0.6,7.7-1.4,10.4c-0.8,2.7-2.1,5-3.8,6.7c-1.7,1.7-4,3-6.9,3.8c-2.9,0.8-6.4,1.2-10.7,1.2
			c-0.6,0-1.5,0-2.8-0.1c-1.2-0.1-2.2-0.1-3-0.1c-4.1,0-7.5-0.3-10.3-0.8c-2.8-0.5-5.1-1.5-7-2.8c-1.9-1.4-3.4-3.4-4.5-6
			c-1.1-2.6-1.7-6-1.9-10.2C620.2,448.8,620.1,444.4,620.1,438.7z M627.9,438.3v10.8c0.1,4.5,0.6,7.9,1.4,10.1
			c0.8,2.3,2.3,3.8,4.6,4.7c2.2,0.9,5.6,1.4,10,1.4c4.4,0,7.7-0.1,10.2-0.4c2.4-0.3,4.4-0.9,6-2c1.6-1.1,2.8-2.8,3.6-5.1
			c0.8-2.3,1.2-5.5,1.4-9.5c0.1-4.9,0.2-12.3,0.2-22.1c0-5.3-0.6-9.2-1.8-11.5c-1.2-2.3-3.1-3.7-5.5-4.3c-2.5-0.5-6.5-0.8-12.1-0.8
			h-2.6c-4.2,0-7.3,0.4-9.3,1.1c-2,0.7-3.5,2.3-4.4,4.5c-0.9,2.3-1.4,5.9-1.4,10.8L627.9,438.3z"/>
		<path class="st4" d="M749.9,403.9v67.2h-7.7v-61.7l-25.3,61.7h-7.5l-25.7-61.1v61.1h-7.3v-67.2h13l23.6,57.3l23.8-57.3H749.9z"/>
	</g>
</g>
</svg>
